PathFileType	4	(X/Y/Z)	Formatted/subject01/trials/walk2/markers.trc
DataRate	CameraRate	NumFrames	NumMarkers	Units	OrigDataRate	OrigDataStartFrame	OrigNumFrames
200.00000000000426	200.00000000000426	4	64	m	200.00000000000426	111	223
Frame#	Time	CLAV			C7			RACR			RASH			RPSH			RLEL			RMEL			RUA1			RUA2			RUA3			RFAsuperior			RFAradius			RFAulna			RASI			RPSI			RCAL			RTOE			RMT5			RTH1			RTH2			RTH3			RTB1			RTB2			RTB3			RLFC			RMFC			RLMAL			RMMAL			RHJC			RKJC			REJC			RAJC			RSJC			LACR			LASH			LPSH			LLEL			LMEL			LUA1			LUA2			LUA3			LFAsuperior			LFAradius			LFAulna			LASI			LPSI			LCAL			LTOE			LMT5			LTH1			LTH2			LTH3			LTB1			LTB2			LTB3			LLFC			LMFC			LLMAL			LMMAL			LHJC			LKJC			LEJC			LAJC			LSJC			
		X1	Y1	Z1	X2	Y2	Z2	X3	Y3	Z3	X4	Y4	Z4	X5	Y5	Z5	X6	Y6	Z6	X7	Y7	Z7	X8	Y8	Z8	X9	Y9	Z9	X10	Y10	Z10	X11	Y11	Z11	X12	Y12	Z12	X13	Y13	Z13	X14	Y14	Z14	X15	Y15	Z15	X16	Y16	Z16	X17	Y17	Z17	X18	Y18	Z18	X19	Y19	Z19	X20	Y20	Z20	X21	Y21	Z21	X22	Y22	Z22	X23	Y23	Z23	X24	Y24	Z24	X25	Y25	Z25	X26	Y26	Z26	X27	Y27	Z27	X28	Y28	Z28	X29	Y29	Z29	X30	Y30	Z30	X31	Y31	Z31	X32	Y32	Z32	X33	Y33	Z33	X34	Y34	Z34	X35	Y35	Z35	X36	Y36	Z36	X37	Y37	Z37	X38	Y38	Z38	X39	Y39	Z39	X40	Y40	Z40	X41	Y41	Z41	X42	Y42	Z42	X43	Y43	Z43	X44	Y44	Z44	X45	Y45	Z45	X46	Y46	Z46	X47	Y47	Z47	X48	Y48	Z48	X49	Y49	Z49	X50	Y50	Z50	X51	Y51	Z51	X52	Y52	Z52	X53	Y53	Z53	X54	Y54	Z54	X55	Y55	Z55	X56	Y56	Z56	X57	Y57	Z57	X58	Y58	Z58	X59	Y59	Z59	X60	Y60	Z60	X61	Y61	Z61	X62	Y62	Z62	X63	Y63	Z63	X64	Y64	Z64	

112	3.935	1.691880129994758	1.438921868549069	-0.4803675634836123	1.572032316199814	1.514199896368383	-0.4944014041262469	1.660931694775265	1.462069847676619	-0.3407995582569715	1.717766225471903	1.419662222641761	-0.32381397135054	1.622703468046339	1.442649718631104	-0.3035975417244086	1.631781861511226	1.109746173435102	-0.210002277866543	1.629225400384984	1.09156739947618	-0.2894144986367716	1.598581837894247	1.329777524125732	-0.2542187606599274	1.662742450493117	1.278746219646133	-0.2587617046259673	1.645702067885734	1.174268527603843	-0.2233660297379605	1.730753227264863	1.088005691147344	-0.2474858741014918	1.884699556462269	1.016331643494727	-0.2799773680905327	1.853571438876663	0.9630490195285419	-0.2496450332518028	1.647817997500046	1.015505398130694	-0.3751765230490796	1.482047833527756	1.055220700528718	-0.4518377177608617	1.194341712055961	0.08188163911367248	-0.4444373447857632	1.431706151816403	0.03400278113157631	-0.4518284050317546	1.376697000045235	0.01667491073584769	-0.3597260580580649	1.570001305845251	0.883437177448664	-0.3256480183822295	1.474634361900064	0.7633385767993973	-0.3500869163449086	1.465357496230064	0.606710350013819	-0.3630905456598761	1.441927425962719	0.3431885844178632	-0.4288525907995863	1.350916833040288	0.3268067689135427	-0.3652133966183833	1.354403007772905	0.1756958664274201	-0.4403935246304035	1.465122426925221	0.5106981502324029	-0.3681893680277538	1.47243663189949	0.5098111978625592	-0.4817189437322724	1.272427856502851	0.08028522095083868	-0.3782971005504868	1.286964459675503	0.07669746402864114	-0.4818962245434965	1.565597994102699	0.9077419334149834	-0.4218219515433563	1.470018471480064	0.5089950096490969	-0.4267973877590915	1.633821809348847	1.089623990076292	-0.2539876470134013	1.262759626078389	0.07141541742153851	-0.4391639516040063	1.673234076755898	1.430430715137969	-0.3143435848921787	1.592945302201647	1.483736302401367	-0.6637672971875999	1.641126866226891	1.438177607354916	-0.705244881338061	1.538459088207282	1.463004103023406	-0.6834111373418392	1.445261464644098	1.141658719922601	-0.7298762531999882	1.451013773793217	1.138198608291578	-0.6429630919109288	1.494601307407682	1.376616045414692	-0.7062805984758069	1.528136587475469	1.290691528734672	-0.7180231217703301	1.470584824167359	1.209671618686318	-0.7235193264841584	1.4707204052747	1.057149402520543	-0.7163948102378627	1.478576890057554	0.8751846383082555	-0.6872857557199679	1.408067307571385	0.8776590808324159	-0.7001528443751023	1.652992426822404	1.011673337204539	-0.6252710431899805	1.485063938658987	1.057992367244007	-0.5646063744917109	1.842633387414521	0.05444007479860874	-0.5708689955718605	2.068579559393242	0.1255268380849561	-0.5565262778429251	2.040091801522301	0.07642611228001099	-0.6539851316067091	1.620029139587466	0.8861661851290842	-0.6732285336211155	1.601641502651054	0.7185094753971046	-0.6348024787350206	1.697770381569558	0.6132224149948527	-0.6258651796366209	1.843230011315787	0.4311713177045764	-0.5692185542617217	1.811070685807533	0.3041200010945058	-0.6308423160267425	1.906422583285396	0.2239416391632609	-0.5794104177302898	1.743022016398437	0.5350423311699366	-0.6388305821789497	1.750050145904597	0.5381911773316483	-0.5253231418851323	1.904750167946952	0.09262057941274515	-0.6372383858730907	1.921149833892306	0.0995621380736586	-0.5340888388848036	1.570315775876957	0.9058398634570718	-0.5814084269351981	1.747246224940069	0.5366384713228225	-0.5804314187553936	1.450544740288136	1.133050904119737	-0.6807738491029046	1.906129811946198	0.079117564108454	-0.5764709043431834	1.596594717510886	1.448946099851123	-0.6957744948796998	
113	3.94	1.69849764681882	1.438342258610087	-0.4811549566506872	1.578606764509976	1.513541882509499	-0.4952411744386347	1.667561506636349	1.461610232246027	-0.3416041798823154	1.724421913214419	1.419249909991834	-0.3245871893887624	1.629350362599829	1.442205941732702	-0.3043763576767859	1.638910932911858	1.109352200488822	-0.2104882526695113	1.636326812181961	1.091104911116256	-0.2898838625884876	1.605400901670009	1.329304472577566	-0.2548640345183786	1.669623864346231	1.278351597306689	-0.2594062974510487	1.652739952849239	1.173881310163313	-0.2239139150090468	1.73788291365315	1.087866169318616	-0.2481040326635246	1.892002683510173	1.016615164327325	-0.2807035631640529	1.861082986430922	0.9632855892065266	-0.2502408481196503	1.654254486490137	1.014565907090946	-0.3754561241457602	1.488697971107805	1.054540706013698	-0.4524434409463192	1.195253902780442	0.0842459850325587	-0.4446758681333481	1.432072610422022	0.03364206634147931	-0.4513865461986937	1.376623169688161	0.01703580392549867	-0.3594153781079811	1.575950152321458	0.8828811601407018	-0.3261622561716107	1.480330234246835	0.7630023257538253	-0.3506915028464029	1.470640881548462	0.606368236382042	-0.3633182414979122	1.445510580194332	0.3428936518016128	-0.4287042108394846	1.354155571082674	0.3275408846178154	-0.3653023671016891	1.356267677630261	0.1763140559425951	-0.4403003351215479	1.470140556243321	0.5103438781269152	-0.3681626248708428	1.477939324783035	0.5091317064231891	-0.4816569361273312	1.273123389313702	0.08184035683407376	-0.3783259042923394	1.287911347766548	0.07797947237827063	-0.4818796255179272	1.572032408154975	0.9069417917472004	-0.4224185444020825	1.475332467191689	0.508398853939882	-0.4267588402209437	1.640948426911595	1.089196501410807	-0.2544583875586461	1.26353301870507	0.07300129531169408	-0.4392095427706111	1.679885645329014	1.430003663060844	-0.315119425273287	1.599506113165495	1.482923704075159	-0.6645808734123475	1.647704876500224	1.437350389602968	-0.7060223986525511	1.545027601836467	1.462142903883105	-0.6841947004036166	1.452011214323668	1.140673455781815	-0.7301408239081039	1.45792021386351	1.137287789732639	-0.6432352427976492	1.501212322355898	1.375687474963952	-0.7068216994722731	1.534792723483557	1.289779258978415	-0.7185545386653432	1.477293554975376	1.208710848731964	-0.7238835189949316	1.477543545314157	1.056187358746852	-0.7166126895400935	1.4855018504087	0.8742493211094891	-0.6873645671458275	1.414977785905146	0.8766858260767908	-0.7001593249817967	1.659990755242631	1.011032744836763	-0.6255427899229385	1.491971912380636	1.057446456529694	-0.5652015310769356	1.848844656294208	0.05355726901424335	-0.5699479961789313	2.07471362162195	0.1247853664917216	-0.5550993353055546	2.046496526774481	0.07559181911482715	-0.6525901156639174	1.627068593656261	0.8854233761916472	-0.6736542238819714	1.608387961150284	0.7178194576472363	-0.6351392960993204	1.704376583575691	0.6124365049748079	-0.6258323408311638	1.84954467389525	0.4303485805086422	-0.5686292680819092	1.817507225084775	0.3032558291429051	-0.6302310676300827	1.91269200538121	0.2230883189411516	-0.5784737285857076	1.749581300708914	0.5341966445568893	-0.6385993066152346	1.75628213547978	0.5374348341479878	-0.5250745878086872	1.911129622760866	0.09171847524177512	-0.636193870074937	1.927253454129596	0.09874248549942632	-0.5330064257537207	1.577109241490215	0.9052290289689419	-0.581996145179688	1.753628379961847	0.5358394632961488	-0.580191027303634	1.45738811982967	1.132109261752054	-0.6810409557785424	1.912340643320922	0.07826691943779884	-0.5754113830658006	1.60316860861482	1.448104142671978	-0.6965546345370758	
114	3.945	1.705134192750184	1.437836913544686	-0.4819577994893503	1.585187641096589	1.512937347317324	-0.4960991650722343	1.674207071428674	1.461226126170181	-0.3424252922994762	1.731100496027768	1.418923451721369	-0.3253752871667747	1.636016437098525	1.441833036869562	-0.3051705972676983	1.645929556290805	1.109066384798205	-0.210953634479109	1.643331766325274	1.090739966540411	-0.2903305707070494	1.612192992076702	1.328943731360481	-0.2555286376679929	1.676462609962847	1.278047577383159	-0.2600468577728655	1.659691945008878	1.173595615625584	-0.2244470114717522	1.744901968220336	1.087750610470694	-0.2486684255864328	1.899147409116404	1.016789566058661	-0.2813060220150381	1.868384245622637	0.9634480750455524	-0.2507059996904018	1.660760600085742	1.013665090048377	-0.3757358336914686	1.495423302324697	1.053902898758518	-0.4530565165770062	1.196257260364715	0.0867847978275713	-0.4449229572085146	1.432454641539237	0.0332775007142438	-0.4509774066419386	1.376567791704357	0.01742815583752707	-0.3591375325587882	1.581978365394525	0.8823785193497862	-0.3266945874242581	1.486128574244276	0.7627004194308336	-0.3513067296558774	1.476053433122132	0.6060597029592723	-0.363543294233391	1.449207129924851	0.342648831774025	-0.4285530966365543	1.357516107172426	0.3283473611241112	-0.3653908988976637	1.358217742209313	0.1770213690485164	-0.4402151044928627	1.475304016415572	0.5100240726402839	-0.3681249792747654	1.483589544939876	0.5084757206435482	-0.4815807039506369	1.27389340365436	0.08351400537897818	-0.3783696402585198	1.288928448076166	0.07937718809363403	-0.4818771158611685	1.578544140369787	0.9061833272446371	-0.4230329129034465	1.480794600601425	0.5078272997591828	-0.4267073566525053	1.647969037570496	1.088870170413114	-0.2549050825771234	1.264379059588195	0.07470889688737836	-0.4392701244339515	1.686558368622364	1.42965544688404	-0.3159104001835523	1.606077734087362	1.482160297473776	-0.6654112038973997	1.654301126501563	1.436578565898202	-0.7068148023382508	1.55161034285798	1.461320917858252	-0.6849937372472483	1.458898968887328	1.139685228385692	-0.7304878571889593	1.464940935957114	1.136369535221678	-0.6435887211111253	1.507869372867379	1.374771505641916	-0.707412727979458	1.541529248340177	1.288892688184811	-0.7191330489890294	1.484113767006722	1.207755628513604	-0.7243176031194285	1.484538067657715	1.05523249121446	-0.7169130174836111	1.492673221919582	0.8733227482817604	-0.6875378321361594	1.42213706764661	0.8756902814957119	-0.7002787812961941	1.667077856416552	1.010457579612743	-0.625812886944096	1.49896355845323	1.056954802731708	-0.5658026980471837	1.854212135353576	0.05259437083732828	-0.5689415838345385	2.080184480338409	0.1234153449669384	-0.5537230745906155	2.052072163971854	0.07415416099994974	-0.6512099722882734	1.634087195398401	0.8847139965639925	-0.6741502108048699	1.615213706884886	0.7171746080977014	-0.6354489970249494	1.711105453971881	0.6117299227243165	-0.6258472819405667	1.855862865301716	0.4294282906333199	-0.5681146555510845	1.823632405677937	0.302339024855282	-0.6296228930482645	1.918496965163732	0.2219935465002027	-0.5775545370300174	1.756270707744251	0.5334387794661657	-0.6384383249335355	1.762787002757811	0.5368190437145077	-0.5249070052395073	1.916721896735446	0.09055373325580218	-0.6351090002187191	1.932638483228112	0.09766944299402752	-0.5318956664241276	1.583992216512169	0.9046769802152674	-0.5826003527148288	1.760244336977292	0.5351508281058937	-0.5800217198802616	1.464358502560105	1.131162872300183	-0.6813898274793284	1.917765538755395	0.07717760757710684	-0.5743067656831188	1.609758999096158	1.447310561060874	-0.6973499153550284	
115	3.95	1.711789121075161	1.437407678203162	-0.4827754573743613	1.591773221478257	1.512385850335503	-0.4969770831479979	1.68086600190063	1.460921184993891	-0.3432629548447015	1.737800109180496	1.418687764395322	-0.3261771035065562	1.642699280789981	1.441534655410748	-0.3059803498464502	1.652829955194484	1.10889269944157	-0.2114001728432587	1.650233305047017	1.090477082270616	-0.290756499472102	1.618953768535621	1.328700106279821	-0.2562135869290659	1.683253820092917	1.277838162747363	-0.2606837833073551	1.666551311168796	1.173415367633499	-0.2249665237412179	1.751803447817166	1.087660951938124	-0.2491791453422272	1.906126565771956	1.016853176519566	-0.2817824084748119	1.875466081662631	0.9635350521750764	-0.2510389443160458	1.667337641188616	1.012800068214282	-0.3760085635268987	1.502227743558583	1.053304537783008	-0.4536751646638098	1.197357693377462	0.0894996972128233	-0.4451782797864622	1.432851114157372	0.03291117949170326	-0.4506076911284935	1.376533199284799	0.01785307682167934	-0.3588980940435583	1.588093325592692	0.8819255813482111	-0.3272441171953318	1.492036470906189	0.7624288107180665	-0.3519299448235336	1.481602593246567	0.6057806704147543	-0.3637642329099665	1.45302203487129	0.3424520715167498	-0.4284008726537579	1.361005597198756	0.3292239237676778	-0.3654784581695029	1.360257295596395	0.1778178646422502	-0.4401400628747327	1.4806205589217	0.5097346329115271	-0.3680758500656592	1.489391738325632	0.5078405199695406	-0.4814898156368667	1.27474351237726	0.08530654720471836	-0.378430002065801	1.290018561613045	0.08089260978398954	-0.481890880425407	1.585137634655332	0.9054639940585246	-0.4236637352962508	1.486410876345834	0.5072768100084644	-0.4266424097222203	1.654876190819726	1.088649222114689	-0.2553295581653099	1.265301794509282	0.07653974427973165	-0.4393473130827536	1.693250126120959	1.429390390491498	-0.3167159342544795	1.612660598855125	1.481443167696371	-0.6662592651128461	1.660917200426304	1.435859358267797	-0.70762186314528	1.558208305764547	1.460534000564457	-0.6858093691923656	1.465927159429661	1.138690620860861	-0.7309208787176127	1.472076373684612	1.135440574976388	-0.644026785684198	1.514574093979845	1.373864611487724	-0.7080562838228601	1.548348167728478	1.288028434913977	-0.7197604353455065	1.491047673494719	1.206802532268637	-0.7248245888176075	1.49170609533427	1.05428152017349	-0.7172985991330428	1.500092277157901	0.8724018395548243	-0.6878080827697155	1.429546791201685	0.8746693356989637	-0.7005155188240805	1.674264771203695	1.00995117963259	-0.6260738092486194	1.506047130359724	1.056517473394877	-0.5664077610884493	1.858731321311588	0.05155289248048582	-0.5678726952415724	2.084983859603579	0.1214183666693328	-0.5524027718087496	2.056815955963506	0.07211924034657836	-0.6498544375121791	1.64110151807269	0.8840408481067514	-0.6747124328545345	1.622121191683628	0.7165771623979623	-0.6357367945228751	1.717952412559003	0.6110979126190776	-0.6259130102688938	1.862171354321854	0.4284038813907794	-0.5676776296503733	1.829439384948352	0.3013671126449208	-0.6290292787815388	1.923828912729789	0.220656622293136	-0.5766629916365138	1.763081741995369	0.5327616103180182	-0.6383510563800293	1.769547967959917	0.5363302894561353	-0.5248226401594875	1.921524333802874	0.08913044072389081	-0.6340009728040711	1.937297159101929	0.09634311308390336	-0.5307723010933321	1.590975351293499	0.9041851529662402	-0.5832193810531414	1.767080123645786	0.5345620724262687	-0.5799264007761176	1.471457198745086	1.130208413360404	-0.6818237871170989	1.922399383048992	0.07585148418904408	-0.5731747839252442	1.616367217366767	1.446561984363973	-0.6981606938932033	
